<?xml version="1.0" encoding="utf-8"?>
<!-- Generator: Adobe Illustrator 15.0.0, SVG Export Plug-In  -->
<!DOCTYPE svg PUBLIC "-//W3C//DTD SVG 1.1//EN" "http://www.w3.org/Graphics/SVG/1.1/DTD/svg11.dtd" [
	<!ENTITY ns_flows "http://ns.adobe.com/Flows/1.0/">
]>
<svg version="1.1"
	 xmlns="http://www.w3.org/2000/svg" xmlns:xlink="http://www.w3.org/1999/xlink" xmlns:a="http://ns.adobe.com/AdobeSVGViewerExtensions/3.0/"
	 x="0px" y="0px" width="279px" height="268px" viewBox="-6.348 0 279 268"
	 overflow="visible" enable-background="new -6.348 0 279 268" xml:space="preserve">
<defs>
</defs>
<path fill="#6D8936" d="M6.494,162.652h0.195c1.855,0.847,3.434,3.142,4.736,6.885c3.613,11.198,6.282,25.505,8.008,42.92
	c1.139,5.664,1.709,10.629,1.709,14.893c-0.163,0.424-0.603,0.635-1.318,0.635c-0.521-1.009-1.302-6.185-2.344-15.527
	c-0.293-1.009-0.944-5.322-1.953-12.939l-1.514-0.195c-7.031,0.651-10.547,1.367-10.547,2.148v7.568l-1.318,18.115
	c0.293,0.456,0.439,0.879,0.439,1.27c0,0.229-0.293,0.521-0.879,0.879c-1.14,0-1.709-0.716-1.709-2.148
	c1.009-13.736,1.514-22.005,1.514-24.805c-0.13-1.79-0.195-3.597-0.195-5.42c0.065-9.375,0.846-19.287,2.344-29.736
	C4.28,164.166,5.225,162.652,6.494,162.652z M6.494,165.24c-1.888,7.292-2.832,16.716-2.832,28.271c-0.13,0-0.195,1.579-0.195,4.736
	v0.635c4.102-1.139,8.057-1.709,11.865-1.709v-0.244c0-3.971-2.165-13.379-6.494-28.223C7.894,166.656,7.112,165.5,6.494,165.24z"/>
<path fill="#6D8936" d="M36.523,157.232h0.391c0.358,0.456,1.53,0.847,3.516,1.172c2.474,1.01,4.492,2.832,6.055,5.469
	c2.213,5.371,3.32,9.343,3.32,11.914v1.953c0,8.529-2.474,14.714-7.422,18.555c5.729,1.367,9.049,8.139,9.961,20.312v7.422
	c0,1.107,0.065,2.734,0.195,4.883l-0.586,0.391h-0.586l-0.781-0.586c-0.13-2.604-0.195-4.557-0.195-5.859v-7.031
	c0-4.883-1.498-9.896-4.492-15.039c-2.083-1.953-3.906-2.93-5.469-2.93h-0.195c0.13,2.8,0.195,4.883,0.195,6.25v7.422
	c0.26,6.445,0.391,10.092,0.391,10.938v0.391c-0.261,0.521-0.651,0.781-1.172,0.781c-0.195,0-0.521-0.26-0.977-0.781l0.195-1.367
	c-0.261-5.501-0.391-9.146-0.391-10.938v-11.719c-0.554,0-0.944-0.26-1.172-0.781v-0.586c0.26-0.521,0.586-0.781,0.977-0.781
	c-0.651-17.871-1.498-30.826-2.539-38.867L36.523,157.232z M38.086,159.966c0.781,9.506,1.497,21.289,2.148,35.352
	c5.078-3.45,7.617-8.984,7.617-16.602v-2.734c0-3.418-1.433-7.779-4.297-13.086c-2.148-1.953-3.776-2.93-4.883-2.93H38.086z"/>
<path fill="#6D8936" d="M83.496,165.728l0.586,0.684v0.488c0,0.554-1.823,0.83-5.469,0.83h-5.469c-0.195,0-0.391,0.229-0.586,0.684
	l0.391,8.936c-0.13,0.814-0.195,1.27-0.195,1.367c1.172,19.694,1.758,33.806,1.758,42.334c0.13,0.229,0.195,0.407,0.195,0.537
	c-0.13,0.195-0.195,0.358-0.195,0.488l0.195,1.172c-0.195,0.456-0.391,0.684-0.586,0.684H73.34c-0.13,0-0.391-0.228-0.781-0.684
	c0-0.228,0.065-0.846,0.195-1.855c0-2.799-0.586-16.861-1.758-42.188c0-4.134-0.13-7.894-0.391-11.279l-0.391-0.195h-0.586
	l-6.25,0.537c-0.391-0.423-0.586-0.928-0.586-1.514c0-0.195,0.26-0.423,0.781-0.684c0.911,0.229,1.432,0.342,1.562,0.342
	c2.506-0.228,4.264-0.342,5.273-0.342h8.008C80.078,166.07,81.771,165.957,83.496,165.728z"/>
<path fill="#6D8936" d="M99.268,162.896h0.391c0.911,0,1.367,3.451,1.367,10.352v2.539c0,2.539-0.391,9.115-1.172,19.727
	c0,0.521,0.065,1.042,0.195,1.562c-0.13,6.804-0.195,12.207-0.195,16.211v12.695c0,0.261,0.13,0.912,0.391,1.953
	c-0.163,0.912-0.423,1.367-0.781,1.367h-0.781c-0.521,0-0.781-1.758-0.781-5.273c0-22.591,0.391-38.15,1.172-46.68v-5.469
	c0-3.027-0.195-5.762-0.586-8.203C98.486,163.482,98.747,163.222,99.268,162.896z"/>
<path fill="#6D8936" d="M126.074,163.091h1.367c2.344,0.424,3.516,1.27,3.516,2.539c0,0.195-0.261,0.456-0.781,0.781h-0.781
	c-0.847-1.041-1.758-1.562-2.734-1.562c-3.255,1.14-4.883,2.182-4.883,3.125c-2.604,4.948-3.906,11.719-3.906,20.312v3.32
	c0,5.795,0.781,12.761,2.344,20.898c0.944,5.957,2.246,9.994,3.906,12.109c2.018,1.758,3.776,2.67,5.273,2.734
	c1.92,0,4.004-1.432,6.25-4.297h0.586c0.195,0,0.391,0.195,0.586,0.586v0.391c0,1.172-1.433,2.67-4.297,4.492
	c-1.205,0.521-2.312,0.781-3.32,0.781h-0.195c-1.921-0.228-3.939-1.27-6.055-3.125c-2.312-1.822-4.33-9.244-6.055-22.266
	c-0.651-2.799-0.977-7.422-0.977-13.867v-1.172c0.228-13.184,2.376-21.321,6.445-24.414
	C124.284,163.547,125.521,163.091,126.074,163.091z"/>
<path fill="#6D8936" d="M157.178,165.435h0.391c0.488,0,0.879,0.781,1.172,2.344c-0.13,3.158-0.195,5.566-0.195,7.227
	c0,12.305,0.651,24.414,1.953,36.328c0.651,8.203,1.302,13.803,1.953,16.797v0.195c0,0.195-0.195,0.391-0.586,0.586h-0.586
	c-1.042,0-1.888-5.403-2.539-16.211c-0.651-6.021-0.977-9.798-0.977-11.328c-0.13,0-0.195-0.064-0.195-0.195
	c-2.409,0.131-4.167,0.195-5.273,0.195h-1.953c-0.261,7.91-0.391,13.184-0.391,15.82c0,3.354,0.13,7.194,0.391,11.523l-0.781,0.586
	c-0.912,0-1.367-0.586-1.367-1.758c0-1.399-0.065-5.176-0.195-11.328c0.391-13.704,0.911-26.139,1.562-37.305v-0.586
	c0-0.813-0.065-1.79-0.195-2.93c0.13-0.521,0.195-0.977,0.195-1.367l-0.195-1.953c0.13-1.236,0.195-2.474,0.195-3.711
	c0-0.162-0.065-0.813-0.195-1.953l0.781-0.586h0.586c0.391,0,0.651,0.717,0.781,2.148c-0.13,2.279-0.195,3.711-0.195,4.297
	c0,1.562,0.065,4.558,0.195,8.984c-0.651,9.18-0.977,15.234-0.977,18.164h2.93c0.847,0,2.148-0.064,3.906-0.195v-0.781
	c-0.521-6.478-0.781-14.355-0.781-23.633c0-1.074,0.065-3.418,0.195-7.031c-0.261-0.618-0.391-1.204-0.391-1.758L157.178,165.435z"
	/>
<path fill="#6D8936" d="M182.715,162.652h0.195c1.855,0.847,3.435,3.142,4.736,6.885c3.613,11.198,6.282,25.505,8.008,42.92
	c1.14,5.664,1.709,10.629,1.709,14.893c-0.163,0.424-0.603,0.635-1.318,0.635c-0.521-1.009-1.302-6.185-2.344-15.527
	c-0.293-1.009-0.944-5.322-1.953-12.939l-1.514-0.195c-7.031,0.651-10.547,1.367-10.547,2.148v7.568l-1.318,18.115
	c0.293,0.456,0.439,0.879,0.439,1.27c0,0.229-0.293,0.521-0.879,0.879c-1.14,0-1.709-0.716-1.709-2.148
	c1.009-13.736,1.514-22.005,1.514-24.805c-0.13-1.79-0.195-3.597-0.195-5.42c0.065-9.375,0.847-19.287,2.344-29.736
	C180.501,164.166,181.445,162.652,182.715,162.652z M182.715,165.24c-1.888,7.292-2.832,16.716-2.832,28.271
	c-0.13,0-0.195,1.579-0.195,4.736v0.635c4.102-1.139,8.057-1.709,11.865-1.709v-0.244c0-3.971-2.165-13.379-6.494-28.223
	C184.114,166.656,183.333,165.5,182.715,165.24z"/>
<path fill="#6D8936" d="M215.771,160.552h0.391c0.651,0.326,0.977,0.847,0.977,1.562v0.977c1.172,21.191,2.604,38.249,4.297,51.172
	c1.14,8.725,2.897,13.086,5.273,13.086c1.692-0.716,2.539-1.953,2.539-3.711c0-5.11-0.521-18.001-1.562-38.672
	c0.13-3.775,0.195-7.422,0.195-10.938v-4.688l-0.195-1.172l0.195-0.391c-0.13-1.758-0.325-3.58-0.586-5.469l0.781-0.586h0.586
	c0.554,0,0.944,1.823,1.172,5.469c0,0.261-0.065,0.391-0.195,0.391c0.13,1.953,0.195,3.386,0.195,4.297v6.25l-0.195,1.172
	c0,0.131,0.065,0.195,0.195,0.195c-0.13,1.53-0.195,2.637-0.195,3.32v0.781c1.042,22.656,1.562,36.003,1.562,40.039
	c-0.358,3.776-2.051,5.664-5.078,5.664c-3.516,0-5.859-6.25-7.031-18.75c-1.433-11.133-2.8-27.604-4.102-49.414L215.771,160.552z"/>
<path fill="#6D8936" d="M264.746,165.728l0.586,0.684v0.488c0,0.554-1.823,0.83-5.469,0.83h-5.469c-0.195,0-0.391,0.229-0.586,0.684
	l0.391,8.936c-0.13,0.814-0.195,1.27-0.195,1.367c1.172,19.694,1.758,33.806,1.758,42.334c0.13,0.229,0.195,0.407,0.195,0.537
	c-0.13,0.195-0.195,0.358-0.195,0.488l0.195,1.172c-0.195,0.456-0.391,0.684-0.586,0.684h-0.781c-0.13,0-0.391-0.228-0.781-0.684
	c0-0.228,0.065-0.846,0.195-1.855c0-2.799-0.586-16.861-1.758-42.188c0-4.134-0.13-7.894-0.391-11.279l-0.391-0.195h-0.586
	l-6.25,0.537c-0.391-0.423-0.586-0.928-0.586-1.514c0-0.195,0.261-0.423,0.781-0.684c0.911,0.229,1.433,0.342,1.562,0.342
	c2.507-0.228,4.265-0.342,5.273-0.342h8.008C261.328,166.07,263.021,165.957,264.746,165.728z"/>
<circle fill="#D3E2B5" cx="127.094" cy="74.832" r="74.831"/>
<g id="XMLID_1_">
	<g>
		<path fill="#6D8936" d="M163.867,84.619c0.006-0.013,0.019-0.019,0.031-0.032c0.753-0.67,8.844-8.027,9.871-16.654
			c0,0,2.712-2.68,2.233,3.988c-0.479,6.655-4.55,18.606-9.438,23.608c-4.894,4.996-10.209,11.747-14.465,12.385
			c-4.256,0.638-5.793,0.536-7.976-0.102c-0.191-0.058-0.428-0.128-0.676-0.205c-1.889-0.562-5.405-1.582-8.206-1.837
			c-1.174-0.115-2.227-0.083-2.973,0.172c-2.119,0.74-10.324,3.209-14.88,6.208c-0.887,0.593-1.633,1.199-2.169,1.806
			c-5.302-0.428-6.132-3.165-7.893-5.507c-0.051-0.07-0.096-0.134-0.14-0.198c0.146,0.734-0.364,1.825-4.646,1.314
			c-5.379-0.651-12.8-14.012-17.79-24.54c-2.399-5.079-4.243-9.488-5.021-11.511c-2.393-6.221-1.404-10.375-1.404-10.375
			s1.806-2.15,2.801,1.238c0.989,3.363,3.611,9.603,5.181,9.814c0.013,0,0.032,0.006,0.044,0.006
			c0.728,0.057,1.231-0.122,1.685-0.134c0.523-0.013,0.983,0.191,1.64,1.231c1.219,1.94-1.276-4.651-0.587-8.856
			c0.689-4.205,1.544-3.669,2.393-6.91s2.82-16.061,7.925-17.177c0,0,0.83,4.894,0.574,8.173c0.555-3.216,2.361-11,7.108-12.666
			c6.023-2.112,7.574-7.854,10.809-8.135c0,0,0.875-0.396,1.71,0.281c0,0,5.188-6.502,7.223-6.585
			c2.029-0.083,5.857,3.197,7.376,4.147c1.513,0.963,4.786,4.269,5.545,4.9c0.753,0.645,2.31,0.727,3.867,2.125
			c1.557,1.391,3.51,2.304,4.186,2.948c0.676,0.638,1.238,2.469,2.794,2.469c0.504,0,1.053-0.147,1.608-0.293
			c1.148-0.307,2.329-0.594,3.215,0.536c1.314,1.678,5.424,9.016,5.743,11.128c0,0-0.357-3.312,0.6-3.867
			c0.957-0.562,1.231-1.436,2.788,0.638c1.558,2.074,3.273,2.782,3.548,8.174c0.186,3.497,0.262,11.326,0.153,16.902
			c-0.058,3.005-0.166,5.36-0.351,6.03c-0.479,1.768-3.555,4.875-4.008,5.328C163.886,84.594,163.873,84.606,163.867,84.619z"/>
		<path fill="#6D8936" d="M163.898,84.587c-0.013,0.013-0.025,0.019-0.031,0.032C163.873,84.606,163.886,84.594,163.898,84.587z"/>
		<path fill="#6D8936" d="M135.243,105.771c2.801,0.255,6.317,1.276,8.206,1.837c-1.104,1.187-2.635,2.827-4.173,4.435
			c-0.044,3.056-0.159,8.358-0.421,14.063c-8.793,0.67-16.411-1.417-20.584-2.91c0.122-2.725,0.21-4.824,0.23-5.666
			c0.038-1.882-0.542-3.873-1.11-5.379c4.556-2.999,12.761-5.468,14.88-6.208C133.016,105.688,134.069,105.657,135.243,105.771z"/>
	</g>
	<g>
	</g>
</g>
<path fill="none" stroke="#D3E2B5" d="M116.742,114.03c-0.551,0-1.048-0.027-1.523-0.065"/>
<path fill="none" stroke="#D3E2B5" d="M86.312,74.197c-0.506,2.728-1.241,7.079-1.557,10.827"/>
<path fill="none" stroke="#D3E2B5" d="M106.965,95.77c-0.804,1.022-1.596,2.141-1.709,2.708
	C105.153,98.993,105.807,97.45,106.965,95.77"/>
<path fill="none" stroke="#D3E2B5" d="M108.629,93.768c-0.629,0.602-1.188,1.312-1.664,2.002"/>
<path fill="none" stroke="#D3E2B5" d="M91.137,76.96c6.003,5.619,14.866,13.939,17.629,16.651c0,0-0.05,0.057-0.137,0.156"/>
<path fill="none" stroke="#D3E2B5" d="M91.137,76.96c-1.161-1.088-2.214-2.072-3.097-2.897"/>
<path fill="none" stroke="#D3E2B5" d="M106.965,95.77c0.687-0.873,1.378-1.677,1.664-2.002"/>
<path fill="none" stroke="#D3E2B5" d="M130.859,103.98c-2.153-0.956-12.443-8.135-17.228-11.166
	c-1.879-1.189-3.608-0.386-5.003,0.954"/>
<path fill="none" stroke="#D3E2B5" d="M140.989,84.12c0,0-10.769-15.792-12.842-17.865s-1.914-1.675-5.982-1.515
	c-1.514,0.059-3.849,2.504-6.186,5.55"/>
<path fill="none" stroke="#D3E2B5" d="M108.089,82.287c0,0,3.946-6.855,7.891-11.997"/>
<path fill="none" stroke="#D3E2B5" d="M132.773,91.857c0,0,12.921-12.362,15.793-12.043c2.87,0.318,4.546,0.398,7.497,7.019"/>
<path fill="none" stroke="#D3E2B5" d="M168.26,73.231c-0.847-3.329-2.272-8.49-3.821-12.24c-2.473-5.982-3.59-3.988-5.345-3.59
	c-1.754,0.398-3.27,7.099-6.301,10.927c-3.03,3.828-9.331,11.479-9.331,11.479"/>
<path fill="none" stroke="#D3E2B5" d="M150.456,61.158c0.505-1.397,4.261-12.321,1.753-21.443"/>
<path fill="none" stroke="#D3E2B5" d="M150.456,61.158c-0.035,0.098-0.057,0.151-0.057,0.151"/>
<path fill="none" stroke="#D3E2B5" d="M150.456,61.158c0.569,0.717,1.015,1.228,1.277,1.428"/>
<path fill="none" stroke="#D3E2B5" d="M150.456,61.158c-3.281-4.142-10.775-15.36-12.339-16.04c-1.834-0.797-2.951-0.559-4.147,0
	c-0.684,0.319-1.446,1.968-2.228,3.71"/>
<path fill="none" stroke="#D3E2B5" d="M131.742,48.828c-0.583,1.304-1.18,2.661-1.76,3.549c-1.356,2.073-6.939,9.97-6.939,10.209"/>
<path fill="none" stroke="#D3E2B5" d="M91.137,76.96c0.822-4.088,2.386-11.396,3.513-13.816c1.595-3.431,2.552-10.368,4.466-10.528
	c1.914-0.159,4.467-0.639,5.344,0c0.784,0.57,6.923,13.182,11.521,17.674"/>
<path fill="none" stroke="#D3E2B5" d="M131.742,48.828c-0.801-1.244-1.854-2.972-3.354-5.465c-4.228-7.019-3.989-5.184-8.056-5.184
	c-0.896,0-1.962,0.901-3.079,2.304"/>
<path fill="none" stroke="#D3E2B5" d="M117.253,40.483c-3.957,4.978-8.566,16.28-8.566,16.28"/>
<path fill="none" stroke="#D3E2B5" d="M119.374,31.479c-2.955,3.888-2.774,7.051-2.121,9.004"/>
<path fill="none" stroke="#D3E2B5" d="M165.283,93.402c1.579-4.346-6.164,1.66-11.144,6.479c-4.979,4.822-10.678,4.099-10.678,4.099
	"/>
</svg>
